{
	"asset":{
		"generator":"Khronos glTF Blender I/O v4.2.69",
		"version":"2.0"
	},
	"extensionsUsed":[
		"KHR_materials_specular"
	],
	"scene":0,
	"scenes":[
		{
			"name":"Scene",
			"nodes":[
				0
			]
		}
	],
	"nodes":[
		{
			"mesh":0,
			"name":"Tiroir Bernadette v7",
			"rotation":[
				0,
				-0.7071068286895752,
				-0.7071068286895752,
				5.338509012631221e-08
			],
			"scale":[
				0.7291374206542969,
				0.7291374206542969,
				0.7291374206542969
			],
			"translation":[
				-1.720476746559143,
				0.1437043398618698,
				-0.40916138887405396
			]
		}
	],
	"materials":[
		{
			"doubleSided":true,
			"extensions":{
				"KHR_materials_specular":{
					"specularFactor":0
				}
			},
			"name":"Acier_-_Satin\u00e9.003",
			"pbrMetallicRoughness":{
				"baseColorFactor":[
					0.6274510025978088,
					0.6274510025978088,
					0.6274510025978088,
					1
				],
				"metallicFactor":0
			}
		}
	],
	"meshes":[
		{
			"name":"Tiroir Bernadette v7",
			"primitives":[
				{
					"attributes":{
						"POSITION":0,
						"NORMAL":1,
						"TEXCOORD_0":2
					},
					"indices":3,
					"material":0
				}
			]
		}
	],
	"accessors":[
		{
			"bufferView":0,
			"componentType":5126,
			"count":4866,
			"max":[
				0.8999999761581421,
				2.5,
				4.550000190734863
			],
			"min":[
				-4.734922885894775,
				0,
				-4.550000190734863
			],
			"type":"VEC3"
		},
		{
			"bufferView":1,
			"componentType":5126,
			"count":4866,
			"type":"VEC3"
		},
		{
			"bufferView":2,
			"componentType":5126,
			"count":4866,
			"type":"VEC2"
		},
		{
			"bufferView":3,
			"componentType":5123,
			"count":12504,
			"type":"SCALAR"
		}
	],
	"bufferViews":[
		{
			"buffer":0,
			"byteLength":58392,
			"byteOffset":0,
			"target":34962
		},
		{
			"buffer":0,
			"byteLength":58392,
			"byteOffset":58392,
			"target":34962
		},
		{
			"buffer":0,
			"byteLength":38928,
			"byteOffset":116784,
			"target":34962
		},
		{
			"buffer":0,
			"byteLength":25008,
			"byteOffset":155712,
			"target":34963
		}
	],
	"buffers":[
		{
			"byteLength":180720,
			"uri":"tiroir.bin"
		}
	]
}
