{
	"asset":{
		"generator":"Khronos glTF Blender I/O v4.2.69",
		"version":"2.0"
	},
	"extensionsUsed":[
		"KHR_materials_specular"
	],
	"scene":0,
	"scenes":[
		{
			"name":"Scene",
			"nodes":[
				0,
				1
			]
		}
	],
	"nodes":[
		{
			"mesh":0,
			"name":"Cube"
		},
		{
			"mesh":1,
			"name":"MaquetteLoverval CadreBisau v2",
			"rotation":[
				0.7071068286895752,
				0,
				0,
				0.7071068286895752
			]
		}
	],
	"materials":[
		{
			"doubleSided":true,
			"name":"Material",
			"pbrMetallicRoughness":{
				"baseColorFactor":[
					0.800000011920929,
					0.800000011920929,
					0.800000011920929,
					1
				],
				"metallicFactor":0,
				"roughnessFactor":0.5
			}
		},
		{
			"doubleSided":true,
			"extensions":{
				"KHR_materials_specular":{
					"specularFactor":0
				}
			},
			"name":"Ch\u00eane",
			"pbrMetallicRoughness":{
				"baseColorFactor":[
					0,
					0,
					0,
					1
				],
				"metallicFactor":0
			}
		},
		{
			"doubleSided":true,
			"extensions":{
				"KHR_materials_specular":{
					"specularFactor":0
				}
			},
			"name":"Poudrage_-_Rugueux_(blanc)",
			"pbrMetallicRoughness":{
				"baseColorFactor":[
					0.9647060036659241,
					0.9647060036659241,
					0.9529410004615784,
					1
				],
				"metallicFactor":0
			}
		}
	],
	"meshes":[
		{
			"name":"Cube",
			"primitives":[
				{
					"attributes":{
						"POSITION":0,
						"NORMAL":1,
						"TEXCOORD_0":2
					},
					"indices":3,
					"material":0
				}
			]
		},
		{
			"name":"MaquetteLoverval CadreBisau v2",
			"primitives":[
				{
					"attributes":{
						"POSITION":4,
						"NORMAL":5,
						"TEXCOORD_0":6
					},
					"indices":7,
					"material":1
				},
				{
					"attributes":{
						"POSITION":8,
						"NORMAL":9,
						"TEXCOORD_0":10
					},
					"indices":11,
					"material":2
				}
			]
		}
	],
	"accessors":[
		{
			"bufferView":0,
			"componentType":5126,
			"count":24,
			"max":[
				1,
				1,
				1
			],
			"min":[
				-1,
				-1,
				-1
			],
			"type":"VEC3"
		},
		{
			"bufferView":1,
			"componentType":5126,
			"count":24,
			"type":"VEC3"
		},
		{
			"bufferView":2,
			"componentType":5126,
			"count":24,
			"type":"VEC2"
		},
		{
			"bufferView":3,
			"componentType":5123,
			"count":36,
			"type":"SCALAR"
		},
		{
			"bufferView":4,
			"componentType":5126,
			"count":220,
			"max":[
				17.149999618530273,
				4.320000171661377,
				23.299999237060547
			],
			"min":[
				-17.149999618530273,
				0,
				-23.299999237060547
			],
			"type":"VEC3"
		},
		{
			"bufferView":5,
			"componentType":5126,
			"count":220,
			"type":"VEC3"
		},
		{
			"bufferView":6,
			"componentType":5126,
			"count":220,
			"type":"VEC2"
		},
		{
			"bufferView":7,
			"componentType":5123,
			"count":474,
			"type":"SCALAR"
		},
		{
			"bufferView":8,
			"componentType":5126,
			"count":40737,
			"max":[
				14.850000381469727,
				4.794710159301758,
				21
			],
			"min":[
				-14.850000381469727,
				0,
				-21
			],
			"type":"VEC3"
		},
		{
			"bufferView":9,
			"componentType":5126,
			"count":40737,
			"type":"VEC3"
		},
		{
			"bufferView":10,
			"componentType":5126,
			"count":40737,
			"type":"VEC2"
		},
		{
			"bufferView":11,
			"componentType":5123,
			"count":79362,
			"type":"SCALAR"
		}
	],
	"bufferViews":[
		{
			"buffer":0,
			"byteLength":288,
			"byteOffset":0,
			"target":34962
		},
		{
			"buffer":0,
			"byteLength":288,
			"byteOffset":288,
			"target":34962
		},
		{
			"buffer":0,
			"byteLength":192,
			"byteOffset":576,
			"target":34962
		},
		{
			"buffer":0,
			"byteLength":72,
			"byteOffset":768,
			"target":34963
		},
		{
			"buffer":0,
			"byteLength":2640,
			"byteOffset":840,
			"target":34962
		},
		{
			"buffer":0,
			"byteLength":2640,
			"byteOffset":3480,
			"target":34962
		},
		{
			"buffer":0,
			"byteLength":1760,
			"byteOffset":6120,
			"target":34962
		},
		{
			"buffer":0,
			"byteLength":948,
			"byteOffset":7880,
			"target":34963
		},
		{
			"buffer":0,
			"byteLength":488844,
			"byteOffset":8828,
			"target":34962
		},
		{
			"buffer":0,
			"byteLength":488844,
			"byteOffset":497672,
			"target":34962
		},
		{
			"buffer":0,
			"byteLength":325896,
			"byteOffset":986516,
			"target":34962
		},
		{
			"buffer":0,
			"byteLength":158724,
			"byteOffset":1312412,
			"target":34963
		}
	],
	"buffers":[
		{
			"byteLength":1471136,
			"uri":"Carte.bin"
		}
	]
}
