{
	"asset":{
		"generator":"Khronos glTF Blender I/O v4.2.69",
		"version":"2.0"
	},
	"extensionsUsed":[
		"KHR_materials_specular"
	],
	"scene":0,
	"scenes":[
		{
			"name":"Scene",
			"nodes":[
				0
			]
		}
	],
	"nodes":[
		{
			"mesh":0,
			"name":"spray",
			"scale":[
				1.3796685934066772,
				1.3796685934066772,
				1.3796685934066772
			],
			"translation":[
				0.14262723922729492,
				-1.1944562196731567,
				0.2638933062553406
			]
		}
	],
	"materials":[
		{
			"doubleSided":true,
			"extensions":{
				"KHR_materials_specular":{
					"specularFactor":0
				}
			},
			"name":"Acier_-_Satin\u00e9.002",
			"pbrMetallicRoughness":{
				"baseColorFactor":[
					0.6274510025978088,
					0.6274510025978088,
					0.6274510025978088,
					1
				],
				"metallicFactor":0
			}
		}
	],
	"meshes":[
		{
			"name":"spray",
			"primitives":[
				{
					"attributes":{
						"POSITION":0,
						"NORMAL":1,
						"TEXCOORD_0":2
					},
					"indices":3,
					"material":0
				}
			]
		}
	],
	"accessors":[
		{
			"bufferView":0,
			"componentType":5126,
			"count":27985,
			"max":[
				1.0352699756622314,
				2.549999952316284,
				1.0356110334396362
			],
			"min":[
				-1.03541898727417,
				0,
				-1.0353080034255981
			],
			"type":"VEC3"
		},
		{
			"bufferView":1,
			"componentType":5126,
			"count":27985,
			"type":"VEC3"
		},
		{
			"bufferView":2,
			"componentType":5126,
			"count":27985,
			"type":"VEC2"
		},
		{
			"bufferView":3,
			"componentType":5123,
			"count":68148,
			"type":"SCALAR"
		}
	],
	"bufferViews":[
		{
			"buffer":0,
			"byteLength":335820,
			"byteOffset":0,
			"target":34962
		},
		{
			"buffer":0,
			"byteLength":335820,
			"byteOffset":335820,
			"target":34962
		},
		{
			"buffer":0,
			"byteLength":223880,
			"byteOffset":671640,
			"target":34962
		},
		{
			"buffer":0,
			"byteLength":136296,
			"byteOffset":895520,
			"target":34963
		}
	],
	"buffers":[
		{
			"byteLength":1031816,
			"uri":"spray.bin"
		}
	]
}
