<?xml version="1.0" encoding="UTF-8" standalone="no"?>
<svg
   id="Calque_2"
   data-name="Calque 2"
   viewBox="0 0 2968.9112 2070.2519"
   version="1.1"
   width="2968.9111"
   height="2070.252"
   sodipodi:docname="logo2.svg"
   inkscape:version="1.3 (0e150ed, 2023-07-21)"
   xmlns:inkscape="http://www.inkscape.org/namespaces/inkscape"
   xmlns:sodipodi="http://sodipodi.sourceforge.net/DTD/sodipodi-0.dtd"
   xmlns="http://www.w3.org/2000/svg"
   xmlns:svg="http://www.w3.org/2000/svg">
  <sodipodi:namedview
     id="namedview1"
     pagecolor="#ffffff"
     bordercolor="#999999"
     borderopacity="1"
     inkscape:showpageshadow="2"
     inkscape:pageopacity="0"
     inkscape:pagecheckerboard="0"
     inkscape:deskcolor="#d1d1d1"
     inkscape:zoom="0.065704581"
     inkscape:cx="1156.6926"
     inkscape:cy="1263.23"
     inkscape:window-width="1440"
     inkscape:window-height="449"
     inkscape:window-x="0"
     inkscape:window-y="25"
     inkscape:window-maximized="0"
     inkscape:current-layer="Calque_2" />
  <defs
     id="defs14" />
  <g
     id="Calque_1-2"
     data-name="Calque 1"
     transform="matrix(44.966377,0,0,44.966377,-0.21899511,0)">
    <g
       id="g2"
       style="fill:#ffffff">
      <g
         id="g1"
         style="fill:#ffffff">
        <line
           x1="20.030001"
           y1="39.450001"
           x2="3.3199999"
           y2="23.02"
           id="line1"
           style="fill:#ffffff" />
        <path
           d="m 66.03,3.32 c 0,1.84 -1.49,3.33 -3.32,3.33 H 26.67 v 36.08 c 0,0.11 0,0.22 -0.02,0.33 -0.09,0.89 -0.53,1.68 -1.19,2.22 -0.15,0.13 -0.31,0.24 -0.49,0.34 -0.48,0.27 -1.03,0.42 -1.62,0.42 -0.12,0 -0.23,-0.01 -0.34,-0.02 C 22.19,45.94 21.47,45.56 20.94,45 L 1,25.39 C -0.31,24.1 -0.33,22 0.96,20.69 2.24,19.38 4.35,19.37 5.65,20.65 L 20.03,34.79 V 3.32 C 20.03,1.49 21.51,0 23.35,0 h 39.36 c 1.83,0 3.32,1.49 3.32,3.32 z"
           id="path1"
           style="fill:#ffffff" />
      </g>
      <path
         d="m 66.03,23.02 v 19.7 c 0,1.83 -1.49,3.32 -3.32,3.32 H 43.03 c -1.84,0 -3.32,-1.49 -3.32,-3.32 0,-1.83 1.48,-3.33 3.32,-3.33 H 59.38 V 23.02 c 0,-1.83 1.49,-3.32 3.33,-3.32 1.84,0 3.32,1.49 3.32,3.32 z"
         id="path2"
         style="fill:#ffffff" />
    </g>
  </g>
</svg>
