{
	"asset":{
		"generator":"Khronos glTF Blender I/O v4.2.69",
		"version":"2.0"
	},
	"extensionsUsed":[
		"KHR_materials_specular"
	],
	"scene":0,
	"scenes":[
		{
			"name":"Scene",
			"nodes":[
				0
			]
		}
	],
	"nodes":[
		{
			"mesh":0,
			"name":"Clip Top Security v11"
		}
	],
	"materials":[
		{
			"doubleSided":true,
			"extensions":{
				"KHR_materials_specular":{
					"specularFactor":0
				}
			},
			"name":"Poudrage_-_Rugueux_(blanc).001",
			"pbrMetallicRoughness":{
				"baseColorFactor":[
					0.9647060036659241,
					0.9647060036659241,
					0.9529410004615784,
					1
				],
				"metallicFactor":0
			}
		}
	],
	"meshes":[
		{
			"name":"Clip Top Security v11.002",
			"primitives":[
				{
					"attributes":{
						"POSITION":0,
						"NORMAL":1,
						"TEXCOORD_0":2
					},
					"indices":3,
					"material":0
				}
			]
		}
	],
	"accessors":[
		{
			"bufferView":0,
			"componentType":5126,
			"count":1616,
			"max":[
				1.4500000476837158,
				4.300000190734863,
				3.5999999046325684
			],
			"min":[
				-1.4500000476837158,
				0,
				-3.5999999046325684
			],
			"type":"VEC3"
		},
		{
			"bufferView":1,
			"componentType":5126,
			"count":1616,
			"type":"VEC3"
		},
		{
			"bufferView":2,
			"componentType":5126,
			"count":1616,
			"type":"VEC2"
		},
		{
			"bufferView":3,
			"componentType":5123,
			"count":3684,
			"type":"SCALAR"
		}
	],
	"bufferViews":[
		{
			"buffer":0,
			"byteLength":19392,
			"byteOffset":0,
			"target":34962
		},
		{
			"buffer":0,
			"byteLength":19392,
			"byteOffset":19392,
			"target":34962
		},
		{
			"buffer":0,
			"byteLength":12928,
			"byteOffset":38784,
			"target":34962
		},
		{
			"buffer":0,
			"byteLength":7368,
			"byteOffset":51712,
			"target":34963
		}
	],
	"buffers":[
		{
			"byteLength":59080,
			"uri":"Clip.bin"
		}
	]
}
